<svg width="30" height="30" viewBox="0 0 30 30" fill="none" xmlns="http://www.w3.org/2000/svg">
<rect x="0.5" y="0.5" width="29" height="29" rx="14.5" stroke="#9E9E9E"/>
<path d="M16.5703 20.2659C16.5703 21.2592 15.7648 22.0647 14.7715 22.0647C13.7782 22.0647 12.9727 21.2592 12.9727 20.2659" stroke="#1D1D1B" stroke-width="1.19399" stroke-linejoin="bevel"/>
<path d="M19.2392 13.1119C19.2392 10.8209 17.2982 8.9502 14.9979 8.9502C12.6976 8.9502 10.7566 10.8209 10.7566 13.1119C10.7566 17.8025 8.43164 20.2654 8.43164 20.2654H21.5642C21.5642 20.2654 19.2392 17.8021 19.2392 13.1119Z" stroke="#1D1D1B" stroke-width="1.19399" stroke-linejoin="bevel"/>
<path d="M16.6411 13.7347C17.1235 13.7347 17.5146 13.3436 17.5146 12.8612C17.5146 12.3788 17.1235 11.9877 16.6411 11.9877C16.1587 11.9877 15.7676 12.3788 15.7676 12.8612C15.7676 13.3436 16.1587 13.7347 16.6411 13.7347Z" stroke="#1D1D1B" stroke-width="0.238799" stroke-linejoin="bevel"/>
<path d="M20.8 12.206C20.7073 11.6794 20.5454 11.1671 20.3194 10.6823C20.0934 10.1974 19.8048 9.74463 19.4609 9.33472" stroke="#1D1D1B" stroke-width="0.238799" stroke-linejoin="bevel"/>
<path d="M21.9526 12.0027C21.8421 11.3753 21.6494 10.7649 21.3801 10.1873C21.1108 9.60972 20.7669 9.07 20.3574 8.58167" stroke="#1D1D1B" stroke-width="0.238799" stroke-linejoin="bevel"/>
<path d="M9.19531 12.206C9.28803 11.6794 9.44991 11.1671 9.67592 10.6823C9.90193 10.1974 10.1905 9.74463 10.5344 9.33472" stroke="#1D1D1B" stroke-width="0.238799" stroke-linejoin="bevel"/>
<path d="M8.04297 12.0029C8.15346 11.3754 8.34625 10.765 8.61553 10.1874C8.88481 9.60985 9.22866 9.07012 9.63818 8.58179" stroke="#1D1D1B" stroke-width="0.238799" stroke-linejoin="bevel"/>
</svg>
