<svg width="123" height="28" viewBox="0 0 123 28" fill="none" xmlns="http://www.w3.org/2000/svg">
<rect width="123" height="28" rx="12" fill="#202020"/>
<path d="M20.1133 9.77273V18.5H18.8008V10.8977H14.6928V18.5H13.3803V9.77273H20.1133ZM24.7816 18.6321C24.168 18.6321 23.6325 18.4915 23.1751 18.2102C22.7177 17.929 22.3626 17.5355 22.1097 17.0298C21.8569 16.5241 21.7305 15.9332 21.7305 15.2571C21.7305 14.5781 21.8569 13.9844 22.1097 13.4759C22.3626 12.9673 22.7177 12.5724 23.1751 12.2912C23.6325 12.0099 24.168 11.8693 24.7816 11.8693C25.3952 11.8693 25.9308 12.0099 26.3881 12.2912C26.8455 12.5724 27.2006 12.9673 27.4535 13.4759C27.7063 13.9844 27.8327 14.5781 27.8327 15.2571C27.8327 15.9332 27.7063 16.5241 27.4535 17.0298C27.2006 17.5355 26.8455 17.929 26.3881 18.2102C25.9308 18.4915 25.3952 18.6321 24.7816 18.6321ZM24.7859 17.5625C25.1836 17.5625 25.5131 17.4574 25.7745 17.2472C26.0359 17.0369 26.229 16.7571 26.354 16.4077C26.4819 16.0582 26.5458 15.6733 26.5458 15.2528C26.5458 14.8352 26.4819 14.4517 26.354 14.1023C26.229 13.75 26.0359 13.4673 25.7745 13.2543C25.5131 13.0412 25.1836 12.9347 24.7859 12.9347C24.3853 12.9347 24.0529 13.0412 23.7887 13.2543C23.5273 13.4673 23.3327 13.75 23.2049 14.1023C23.0799 14.4517 23.0174 14.8352 23.0174 15.2528C23.0174 15.6733 23.0799 16.0582 23.2049 16.4077C23.3327 16.7571 23.5273 17.0369 23.7887 17.2472C24.0529 17.4574 24.3853 17.5625 24.7859 17.5625ZM28.6158 20.3878V17.3963H29.1484C29.2848 17.2713 29.3999 17.1222 29.4936 16.9489C29.5902 16.7756 29.6712 16.5696 29.7365 16.331C29.8047 16.0923 29.8615 15.8139 29.907 15.4957C29.9524 15.1747 29.9922 14.8082 30.0263 14.3963L30.2308 11.9545H34.6797V17.3963H35.6854V20.3878H34.4411V18.5H29.8771V20.3878H28.6158ZM30.5121 17.3963H33.4354V13.0455H31.3729L31.2365 14.3963C31.1712 15.0838 31.0888 15.6804 30.9893 16.1861C30.8899 16.6889 30.7308 17.0923 30.5121 17.3963ZM36.9308 20.9545V11.9545H38.1751V13.0156H38.2816C38.3555 12.8793 38.462 12.7216 38.6012 12.5426C38.7404 12.3636 38.9336 12.2074 39.1808 12.0739C39.4279 11.9375 39.7546 11.8693 40.1609 11.8693C40.6893 11.8693 41.1609 12.0028 41.5756 12.2699C41.9904 12.5369 42.3157 12.9219 42.5515 13.4247C42.7901 13.9276 42.9094 14.5327 42.9094 15.2401C42.9094 15.9474 42.7915 16.554 42.5558 17.0597C42.32 17.5625 41.9961 17.9503 41.5842 18.223C41.1722 18.4929 40.7021 18.6278 40.1737 18.6278C39.7759 18.6278 39.4506 18.5611 39.1978 18.4276C38.9478 18.294 38.7518 18.1378 38.6097 17.9588C38.4677 17.7798 38.3583 17.6207 38.2816 17.4815H38.2049V20.9545H36.9308ZM38.1793 15.2273C38.1793 15.6875 38.2461 16.0909 38.3796 16.4375C38.5131 16.7841 38.7063 17.0554 38.9592 17.2514C39.212 17.4446 39.5217 17.5412 39.8881 17.5412C40.2688 17.5412 40.587 17.4403 40.8427 17.2386C41.0984 17.0341 41.2915 16.7571 41.4222 16.4077C41.5558 16.0582 41.6225 15.6648 41.6225 15.2273C41.6225 14.7955 41.5572 14.4077 41.4265 14.0639C41.2987 13.7202 41.1055 13.4489 40.8469 13.25C40.5913 13.0511 40.2717 12.9517 39.8881 12.9517C39.5188 12.9517 39.2063 13.0469 38.9506 13.2372C38.6978 13.4276 38.506 13.6932 38.3754 14.0341C38.2447 14.375 38.1793 14.7727 38.1793 15.2273ZM47.0941 18.6321C46.4805 18.6321 45.945 18.4915 45.4876 18.2102C45.0302 17.929 44.6751 17.5355 44.4222 17.0298C44.1694 16.5241 44.043 15.9332 44.043 15.2571C44.043 14.5781 44.1694 13.9844 44.4222 13.4759C44.6751 12.9673 45.0302 12.5724 45.4876 12.2912C45.945 12.0099 46.4805 11.8693 47.0941 11.8693C47.7077 11.8693 48.2433 12.0099 48.7006 12.2912C49.158 12.5724 49.5131 12.9673 49.766 13.4759C50.0188 13.9844 50.1452 14.5781 50.1452 15.2571C50.1452 15.9332 50.0188 16.5241 49.766 17.0298C49.5131 17.5355 49.158 17.929 48.7006 18.2102C48.2433 18.4915 47.7077 18.6321 47.0941 18.6321ZM47.0984 17.5625C47.4961 17.5625 47.8256 17.4574 48.087 17.2472C48.3484 17.0369 48.5415 16.7571 48.6665 16.4077C48.7944 16.0582 48.8583 15.6733 48.8583 15.2528C48.8583 14.8352 48.7944 14.4517 48.6665 14.1023C48.5415 13.75 48.3484 13.4673 48.087 13.2543C47.8256 13.0412 47.4961 12.9347 47.0984 12.9347C46.6978 12.9347 46.3654 13.0412 46.1012 13.2543C45.8398 13.4673 45.6452 13.75 45.5174 14.1023C45.3924 14.4517 45.3299 14.8352 45.3299 15.2528C45.3299 15.6733 45.3924 16.0582 45.5174 16.4077C45.6452 16.7571 45.8398 17.0369 46.1012 17.2472C46.3654 17.4574 46.6978 17.5625 47.0984 17.5625ZM56.6172 9.51705L57.1456 10.3224C56.9496 10.5014 56.7266 10.6293 56.4766 10.706C56.2294 10.7798 55.9439 10.8267 55.62 10.8466C55.2962 10.8636 54.9254 10.8793 54.5078 10.8935C54.0362 10.9077 53.6484 11.0099 53.3445 11.2003C53.0405 11.3878 52.8061 11.6662 52.6413 12.0355C52.4794 12.402 52.3743 12.8622 52.326 13.4162H52.407C52.62 13.0099 52.9155 12.706 53.2933 12.5043C53.674 12.3026 54.1016 12.2017 54.576 12.2017C55.1044 12.2017 55.5746 12.3224 55.9865 12.5639C56.3984 12.8054 56.7223 13.1591 56.9581 13.625C57.1967 14.0881 57.3161 14.6548 57.3161 15.3253C57.3161 16.0043 57.1911 16.5909 56.9411 17.0852C56.6939 17.5795 56.3445 17.9616 55.8928 18.2315C55.4439 18.4986 54.9141 18.6321 54.3033 18.6321C53.6925 18.6321 53.1598 18.4943 52.7053 18.2188C52.2536 17.9403 51.9027 17.5284 51.6527 16.983C51.4055 16.4375 51.282 15.7642 51.282 14.9631V14.3153C51.282 12.8182 51.549 11.6918 52.0831 10.9361C52.6172 10.1804 53.4155 9.79261 54.478 9.77273C54.8217 9.7642 55.1286 9.76278 55.3984 9.76847C55.6683 9.77131 55.9041 9.75852 56.1058 9.73011C56.3104 9.69886 56.4808 9.62784 56.6172 9.51705ZM54.3075 17.5625C54.6626 17.5625 54.968 17.473 55.2237 17.294C55.4822 17.1122 55.6811 16.8551 55.8203 16.5227C55.9595 16.1903 56.0291 15.7983 56.0291 15.3466C56.0291 14.9034 55.9595 14.527 55.8203 14.2173C55.6811 13.9077 55.4822 13.6719 55.2237 13.5099C54.9652 13.3452 54.6555 13.2628 54.2947 13.2628C54.0277 13.2628 53.7891 13.3097 53.5788 13.4034C53.3686 13.4943 53.1882 13.6293 53.0376 13.8082C52.8899 13.9872 52.7749 14.206 52.6925 14.4645C52.6129 14.7202 52.5703 15.0142 52.5646 15.3466C52.5646 16.0227 52.7195 16.5611 53.0291 16.9616C53.3416 17.3622 53.7678 17.5625 54.3075 17.5625ZM63.1754 14.6776V15.7812H59.63V14.6776H63.1754ZM59.9879 11.9545V18.5H58.7393V11.9545H59.9879ZM64.0661 11.9545V18.5H62.8217V11.9545H64.0661ZM68.5916 18.6321C67.9467 18.6321 67.3913 18.4943 66.9254 18.2188C66.4624 17.9403 66.1044 17.5497 65.8516 17.0469C65.6016 16.5412 65.4766 15.9489 65.4766 15.2699C65.4766 14.5994 65.6016 14.0085 65.8516 13.4972C66.1044 12.9858 66.4567 12.5866 66.9084 12.2997C67.3629 12.0128 67.8942 11.8693 68.5021 11.8693C68.8714 11.8693 69.2294 11.9304 69.576 12.0526C69.9226 12.1747 70.2337 12.3665 70.5092 12.6278C70.7848 12.8892 71.0021 13.2287 71.1612 13.6463C71.3203 14.0611 71.3999 14.5653 71.3999 15.1591V15.6108H66.1967V14.6562H70.1513C70.1513 14.321 70.0831 14.0241 69.9467 13.7656C69.8104 13.5043 69.6186 13.2983 69.3714 13.1477C69.1271 12.9972 68.8402 12.9219 68.5107 12.9219C68.1527 12.9219 67.8402 13.0099 67.5732 13.1861C67.3089 13.3594 67.1044 13.5866 66.9595 13.8679C66.8175 14.1463 66.7464 14.4489 66.7464 14.7756V15.5213C66.7464 15.9588 66.8232 16.331 66.9766 16.6378C67.1328 16.9446 67.3501 17.179 67.6286 17.3409C67.907 17.5 68.2322 17.5795 68.6044 17.5795C68.8459 17.5795 69.0661 17.5455 69.2649 17.4773C69.4638 17.4062 69.6357 17.3011 69.7805 17.1619C69.9254 17.0227 70.0362 16.8509 70.1129 16.6463L71.3189 16.8636C71.2223 17.2187 71.049 17.5298 70.799 17.7969C70.5518 18.0611 70.2408 18.267 69.8658 18.4148C69.4936 18.5597 69.0689 18.6321 68.5916 18.6321ZM75.6346 18.6321C74.9897 18.6321 74.4343 18.4943 73.9684 18.2188C73.5053 17.9403 73.1474 17.5497 72.8945 17.0469C72.6445 16.5412 72.5195 15.9489 72.5195 15.2699C72.5195 14.5994 72.6445 14.0085 72.8945 13.4972C73.1474 12.9858 73.4996 12.5866 73.9513 12.2997C74.4059 12.0128 74.9371 11.8693 75.5451 11.8693C75.9144 11.8693 76.2724 11.9304 76.619 12.0526C76.9656 12.1747 77.2766 12.3665 77.5522 12.6278C77.8278 12.8892 78.0451 13.2287 78.2042 13.6463C78.3633 14.0611 78.4428 14.5653 78.4428 15.1591V15.6108H73.2397V14.6562H77.1942C77.1942 14.321 77.1261 14.0241 76.9897 13.7656C76.8533 13.5043 76.6616 13.2983 76.4144 13.1477C76.1701 12.9972 75.8832 12.9219 75.5536 12.9219C75.1957 12.9219 74.8832 13.0099 74.6161 13.1861C74.3519 13.3594 74.1474 13.5866 74.0025 13.8679C73.8604 14.1463 73.7894 14.4489 73.7894 14.7756V15.5213C73.7894 15.9588 73.8661 16.331 74.0195 16.6378C74.1758 16.9446 74.3931 17.179 74.6715 17.3409C74.9499 17.5 75.2752 17.5795 75.6474 17.5795C75.8888 17.5795 76.109 17.5455 76.3079 17.4773C76.5067 17.4062 76.6786 17.3011 76.8235 17.1619C76.9684 17.0227 77.0792 16.8509 77.1559 16.6463L78.3619 16.8636C78.2653 17.2187 78.092 17.5298 77.842 17.7969C77.5948 18.0611 77.2837 18.267 76.9087 18.4148C76.5366 18.5597 76.1119 18.6321 75.6346 18.6321Z" fill="white"/>
<rect x="91" y="4" width="20" height="20" rx="10" fill="white"/>
<path d="M98.5586 16.8103V10.6257L103.915 13.718" stroke="#1D1D1B" stroke-width="0.238799" stroke-linecap="square" stroke-linejoin="bevel"/>
<path d="M106.674 13.7181L97.1797 8.23706V19.1995L106.674 13.7181Z" stroke="#1D1D1B" stroke-width="1.19399" stroke-linejoin="bevel"/>
</svg>
