<svg width="277" height="131" viewBox="0 0 277 131" fill="none" xmlns="http://www.w3.org/2000/svg">
<g filter="url(#filter0_d_2143_327)">
<rect x="42" y="28" width="193" height="47" rx="12" fill="#A020C2"/>
<rect x="66" y="31.5" width="40" height="40" rx="20" fill="white" fill-opacity="0.2"/>
<path d="M87.5703 56.7659C87.5703 57.7592 86.7648 58.5647 85.7715 58.5647C84.7782 58.5647 83.9727 57.7592 83.9727 56.7659" stroke="white" stroke-width="1.19399" stroke-linejoin="bevel"/>
<path d="M90.2392 49.6119C90.2392 47.3209 88.2982 45.4502 85.9979 45.4502C83.6976 45.4502 81.7566 47.3209 81.7566 49.6119C81.7566 54.3025 79.4316 56.7654 79.4316 56.7654H92.5642C92.5642 56.7654 90.2392 54.3021 90.2392 49.6119Z" stroke="white" stroke-width="1.19399" stroke-linejoin="bevel"/>
<path d="M87.6411 50.2347C88.1235 50.2347 88.5146 49.8436 88.5146 49.3612C88.5146 48.8788 88.1235 48.4877 87.6411 48.4877C87.1587 48.4877 86.7676 48.8788 86.7676 49.3612C86.7676 49.8436 87.1587 50.2347 87.6411 50.2347Z" stroke="white" stroke-width="0.238799" stroke-linejoin="bevel"/>
<path d="M91.8 48.706C91.7073 48.1794 91.5454 47.6671 91.3194 47.1823C91.0934 46.6974 90.8048 46.2446 90.4609 45.8347" stroke="white" stroke-width="0.238799" stroke-linejoin="bevel"/>
<path d="M92.9526 48.5027C92.8421 47.8753 92.6494 47.2649 92.3801 46.6873C92.1108 46.1097 91.7669 45.57 91.3574 45.0817" stroke="white" stroke-width="0.238799" stroke-linejoin="bevel"/>
<path d="M80.1953 48.706C80.288 48.1794 80.4499 47.6671 80.6759 47.1823C80.9019 46.6974 81.1905 46.2446 81.5344 45.8347" stroke="white" stroke-width="0.238799" stroke-linejoin="bevel"/>
<path d="M79.043 48.5029C79.1535 47.8754 79.3463 47.265 79.6155 46.6874C79.8848 46.1098 80.2287 45.5701 80.6382 45.0818" stroke="white" stroke-width="0.238799" stroke-linejoin="bevel"/>
<path d="M123.861 48.5V39.7727H127.202C127.832 39.7727 128.357 39.8722 128.774 40.071C129.195 40.267 129.509 40.5355 129.716 40.8764C129.926 41.2173 130.031 41.6037 130.031 42.0355C130.031 42.3906 129.963 42.6946 129.827 42.9474C129.69 43.1974 129.507 43.4006 129.277 43.5568C129.047 43.7131 128.79 43.8253 128.506 43.8935V43.9787C128.815 43.9957 129.112 44.0909 129.396 44.2642C129.683 44.4347 129.918 44.6761 130.099 44.9886C130.281 45.3011 130.372 45.679 130.372 46.1222C130.372 46.5739 130.263 46.9801 130.044 47.3409C129.825 47.6989 129.496 47.9815 129.055 48.1889C128.615 48.3963 128.061 48.5 127.393 48.5H123.861ZM125.442 47.179H127.142C127.716 47.179 128.129 47.0696 128.382 46.8509C128.638 46.6293 128.766 46.3452 128.766 45.9986C128.766 45.7401 128.702 45.5071 128.574 45.2997C128.446 45.0895 128.264 44.9247 128.028 44.8054C127.793 44.6832 127.511 44.6222 127.185 44.6222H125.442V47.179ZM125.442 43.4844H127.006C127.278 43.4844 127.524 43.4347 127.743 43.3352C127.962 43.233 128.134 43.0895 128.259 42.9048C128.386 42.7173 128.45 42.4957 128.45 42.2401C128.45 41.902 128.331 41.6236 128.092 41.4048C127.857 41.1861 127.506 41.0767 127.04 41.0767H125.442V43.4844ZM136.175 44.5881V45.8537H132.689V44.5881H136.175ZM133.167 41.9545V48.5H131.679V41.9545H133.167ZM137.185 41.9545V48.5H135.702V41.9545H137.185ZM141.643 48.6278C140.987 48.6278 140.42 48.4915 139.943 48.2188C139.469 47.9432 139.104 47.554 138.848 47.0511C138.592 46.5455 138.464 45.9503 138.464 45.2656C138.464 44.5923 138.592 44.0014 138.848 43.4929C139.107 42.9815 139.467 42.5838 139.93 42.2997C140.393 42.0128 140.938 41.8693 141.562 41.8693C141.966 41.8693 142.347 41.9347 142.705 42.0653C143.065 42.1932 143.384 42.392 143.659 42.6619C143.938 42.9318 144.156 43.2756 144.315 43.6932C144.474 44.108 144.554 44.6023 144.554 45.1761V45.6491H139.189V44.6094H143.075C143.072 44.3139 143.009 44.0511 142.884 43.821C142.759 43.5881 142.584 43.4048 142.359 43.2713C142.138 43.1378 141.879 43.071 141.584 43.071C141.268 43.071 140.991 43.1477 140.753 43.3011C140.514 43.4517 140.328 43.6506 140.195 43.8977C140.064 44.142 139.997 44.4105 139.994 44.7031V45.6108C139.994 45.9915 140.064 46.3182 140.203 46.5909C140.342 46.8608 140.537 47.0682 140.787 47.2131C141.037 47.3551 141.33 47.4261 141.665 47.4261C141.889 47.4261 142.092 47.3949 142.274 47.3324C142.456 47.267 142.614 47.1719 142.747 47.0469C142.881 46.9219 142.982 46.767 143.05 46.5824L144.49 46.7443C144.399 47.125 144.226 47.4574 143.97 47.7415C143.717 48.0227 143.393 48.2415 142.999 48.3977C142.604 48.5511 142.152 48.6278 141.643 48.6278ZM145.859 48.5V41.9545H151.386V48.5H149.899V43.2202H147.333V48.5H145.859ZM152.521 48.5L152.512 47.2301H152.738C152.908 47.2301 153.052 47.1918 153.168 47.1151C153.285 47.0384 153.381 46.9105 153.458 46.7315C153.535 46.5497 153.594 46.3054 153.637 45.9986C153.68 45.6918 153.71 45.3097 153.727 44.8523L153.842 41.9545H158.614V48.5H157.123V43.2202H155.244L155.141 45.3295C155.116 45.875 155.055 46.348 154.958 46.7486C154.864 47.1463 154.731 47.4744 154.558 47.733C154.387 47.9915 154.173 48.1847 153.914 48.3125C153.656 48.4375 153.35 48.5 152.998 48.5H152.521ZM162.051 48.6321C161.636 48.6321 161.263 48.5582 160.93 48.4105C160.601 48.2599 160.339 48.0384 160.146 47.7457C159.956 47.4531 159.861 47.0923 159.861 46.6634C159.861 46.294 159.929 45.9886 160.065 45.7472C160.202 45.5057 160.388 45.3125 160.624 45.1676C160.859 45.0227 161.125 44.9134 161.42 44.8395C161.719 44.7628 162.027 44.7074 162.345 44.6733C162.729 44.6335 163.04 44.598 163.278 44.5668C163.517 44.5327 163.69 44.4815 163.798 44.4134C163.909 44.3423 163.964 44.233 163.964 44.0852V44.0597C163.964 43.7386 163.869 43.4901 163.679 43.3139C163.489 43.1378 163.214 43.0497 162.857 43.0497C162.479 43.0497 162.179 43.1321 161.957 43.2969C161.739 43.4616 161.591 43.6562 161.514 43.8807L160.074 43.6761C160.188 43.2784 160.375 42.946 160.636 42.679C160.898 42.4091 161.217 42.2074 161.595 42.0739C161.973 41.9375 162.391 41.8693 162.848 41.8693C163.163 41.8693 163.477 41.9062 163.79 41.9801C164.102 42.054 164.388 42.1761 164.646 42.3466C164.905 42.5142 165.112 42.7429 165.268 43.0327C165.428 43.3224 165.507 43.6847 165.507 44.1193V48.5H164.024V47.6009H163.973C163.879 47.7827 163.747 47.9531 163.577 48.1122C163.409 48.2685 163.197 48.3949 162.942 48.4915C162.689 48.5852 162.392 48.6321 162.051 48.6321ZM162.452 47.4986C162.761 47.4986 163.03 47.4375 163.257 47.3153C163.484 47.1903 163.659 47.0256 163.781 46.821C163.906 46.6165 163.969 46.3935 163.969 46.152V45.3807C163.92 45.4205 163.838 45.4574 163.722 45.4915C163.608 45.5256 163.48 45.5554 163.338 45.581C163.196 45.6065 163.055 45.6293 162.916 45.6491C162.777 45.669 162.656 45.6861 162.554 45.7003C162.324 45.7315 162.118 45.7827 161.936 45.8537C161.754 45.9247 161.611 46.0241 161.506 46.152C161.401 46.277 161.348 46.4389 161.348 46.6378C161.348 46.9219 161.452 47.1364 161.659 47.2812C161.866 47.4261 162.131 47.4986 162.452 47.4986ZM171.554 44.5881V45.8537H168.068V44.5881H171.554ZM168.545 41.9545V48.5H167.058V41.9545H168.545ZM172.564 41.9545V48.5H171.081V41.9545H172.564ZM176.98 48.6278C176.341 48.6278 175.787 48.4872 175.318 48.206C174.849 47.9247 174.485 47.5312 174.227 47.0256C173.971 46.5199 173.843 45.929 173.843 45.2528C173.843 44.5767 173.971 43.9844 174.227 43.4759C174.485 42.9673 174.849 42.5724 175.318 42.2912C175.787 42.0099 176.341 41.8693 176.98 41.8693C177.619 41.8693 178.173 42.0099 178.642 42.2912C179.11 42.5724 179.473 42.9673 179.728 43.4759C179.987 43.9844 180.116 44.5767 180.116 45.2528C180.116 45.929 179.987 46.5199 179.728 47.0256C179.473 47.5312 179.11 47.9247 178.642 48.206C178.173 48.4872 177.619 48.6278 176.98 48.6278ZM176.988 47.392C177.335 47.392 177.625 47.2969 177.858 47.1065C178.091 46.9134 178.264 46.6548 178.377 46.331C178.494 46.0071 178.552 45.6463 178.552 45.2486C178.552 44.848 178.494 44.4858 178.377 44.1619C178.264 43.8352 178.091 43.5753 177.858 43.3821C177.625 43.1889 177.335 43.0923 176.988 43.0923C176.633 43.0923 176.338 43.1889 176.102 43.3821C175.869 43.5753 175.694 43.8352 175.578 44.1619C175.464 44.4858 175.407 44.848 175.407 45.2486C175.407 45.6463 175.464 46.0071 175.578 46.331C175.694 46.6548 175.869 46.9134 176.102 47.1065C176.338 47.2969 176.633 47.392 176.988 47.392ZM181.425 48.5V41.9545H184.174C184.95 41.9545 185.562 42.1094 186.011 42.419C186.462 42.7287 186.688 43.1605 186.688 43.7145C186.688 44.081 186.56 44.3807 186.305 44.6136C186.052 44.8437 185.707 44.9986 185.269 45.0781C185.613 45.1065 185.914 45.1932 186.173 45.3381C186.434 45.483 186.638 45.6733 186.786 45.9091C186.934 46.1449 187.008 46.4162 187.008 46.723C187.008 47.0838 186.913 47.3977 186.722 47.6648C186.535 47.929 186.261 48.1349 185.9 48.2827C185.542 48.4276 185.107 48.5 184.596 48.5H181.425ZM182.87 47.2855H184.596C184.88 47.2855 185.103 47.2187 185.265 47.0852C185.427 46.9489 185.508 46.7642 185.508 46.5312C185.508 46.2614 185.427 46.0497 185.265 45.8963C185.103 45.7401 184.88 45.6619 184.596 45.6619H182.87V47.2855ZM182.87 44.6648H184.204C184.414 44.6648 184.594 44.6349 184.745 44.5753C184.896 44.5128 185.011 44.4261 185.09 44.3153C185.17 44.2017 185.21 44.0668 185.21 43.9105C185.21 43.6861 185.117 43.5099 184.933 43.3821C184.751 43.2543 184.498 43.1903 184.174 43.1903H182.87V44.6648ZM190.164 48.6321C189.75 48.6321 189.376 48.5582 189.044 48.4105C188.714 48.2599 188.453 48.0384 188.26 47.7457C188.069 47.4531 187.974 47.0923 187.974 46.6634C187.974 46.294 188.042 45.9886 188.179 45.7472C188.315 45.5057 188.501 45.3125 188.737 45.1676C188.973 45.0227 189.238 44.9134 189.534 44.8395C189.832 44.7628 190.14 44.7074 190.458 44.6733C190.842 44.6335 191.153 44.598 191.392 44.5668C191.63 44.5327 191.804 44.4815 191.912 44.4134C192.022 44.3423 192.078 44.233 192.078 44.0852V44.0597C192.078 43.7386 191.983 43.4901 191.792 43.3139C191.602 43.1378 191.328 43.0497 190.97 43.0497C190.592 43.0497 190.292 43.1321 190.071 43.2969C189.852 43.4616 189.704 43.6562 189.627 43.8807L188.187 43.6761C188.301 43.2784 188.488 42.946 188.75 42.679C189.011 42.4091 189.331 42.2074 189.708 42.0739C190.086 41.9375 190.504 41.8693 190.961 41.8693C191.277 41.8693 191.591 41.9062 191.903 41.9801C192.216 42.054 192.501 42.1761 192.76 42.3466C193.018 42.5142 193.225 42.7429 193.382 43.0327C193.541 43.3224 193.62 43.6847 193.62 44.1193V48.5H192.137V47.6009H192.086C191.993 47.7827 191.86 47.9531 191.69 48.1122C191.522 48.2685 191.311 48.3949 191.055 48.4915C190.802 48.5852 190.505 48.6321 190.164 48.6321ZM190.565 47.4986C190.875 47.4986 191.143 47.4375 191.37 47.3153C191.598 47.1903 191.772 47.0256 191.895 46.821C192.02 46.6165 192.082 46.3935 192.082 46.152V45.3807C192.034 45.4205 191.951 45.4574 191.835 45.4915C191.721 45.5256 191.593 45.5554 191.451 45.581C191.309 45.6065 191.169 45.6293 191.029 45.6491C190.89 45.669 190.77 45.6861 190.667 45.7003C190.437 45.7315 190.231 45.7827 190.049 45.8537C189.868 45.9247 189.724 46.0241 189.619 46.152C189.514 46.277 189.461 46.4389 189.461 46.6378C189.461 46.9219 189.565 47.1364 189.772 47.2812C189.98 47.4261 190.244 47.4986 190.565 47.4986ZM199.041 48.5V43.2074H197.643C197.288 43.2074 197.015 43.2898 196.825 43.4545C196.635 43.6193 196.541 43.8239 196.544 44.0682C196.541 44.3125 196.63 44.5142 196.812 44.6733C196.994 44.8324 197.254 44.9119 197.592 44.9119H199.527V46.0369H197.592C197.069 46.0369 196.618 45.9545 196.237 45.7898C195.856 45.625 195.564 45.392 195.359 45.0909C195.154 44.7898 195.052 44.4375 195.052 44.0341C195.052 43.6136 195.156 43.2486 195.363 42.9389C195.574 42.6264 195.872 42.3849 196.258 42.2145C196.647 42.0412 197.109 41.9545 197.643 41.9545H200.485V48.5H199.041ZM194.814 48.5L196.642 45.142H198.163L196.331 48.5H194.814ZM126.648 63.6278C125.994 63.6278 125.433 63.4844 124.964 63.1974C124.499 62.9105 124.139 62.5142 123.886 62.0085C123.636 61.5 123.511 60.9148 123.511 60.2528C123.511 59.5881 123.639 59.0014 123.895 58.4929C124.151 57.9815 124.511 57.5838 124.977 57.2997C125.446 57.0128 126 56.8693 126.639 56.8693C127.17 56.8693 127.641 56.9673 128.05 57.1634C128.462 57.3565 128.79 57.6307 129.034 57.9858C129.278 58.3381 129.418 58.75 129.452 59.2216H127.977C127.918 58.9062 127.776 58.6435 127.551 58.4332C127.33 58.2202 127.033 58.1136 126.661 58.1136C126.345 58.1136 126.068 58.1989 125.83 58.3693C125.591 58.5369 125.405 58.7784 125.271 59.0938C125.141 59.4091 125.075 59.7869 125.075 60.2273C125.075 60.6733 125.141 61.0568 125.271 61.3778C125.402 61.696 125.585 61.9418 125.821 62.1151C126.06 62.2855 126.339 62.3707 126.661 62.3707C126.888 62.3707 127.091 62.3281 127.27 62.2429C127.452 62.1548 127.604 62.0284 127.726 61.8636C127.848 61.6989 127.932 61.4986 127.977 61.2628H129.452C129.415 61.7259 129.278 62.1364 129.043 62.4943C128.807 62.8494 128.486 63.1278 128.08 63.3295C127.673 63.5284 127.196 63.6278 126.648 63.6278ZM133.616 63.6278C132.96 63.6278 132.393 63.4915 131.916 63.2188C131.441 62.9432 131.076 62.554 130.821 62.0511C130.565 61.5455 130.437 60.9503 130.437 60.2656C130.437 59.5923 130.565 59.0014 130.821 58.4929C131.079 57.9815 131.44 57.5838 131.903 57.2997C132.366 57.0128 132.91 56.8693 133.535 56.8693C133.939 56.8693 134.319 56.9347 134.677 57.0653C135.038 57.1932 135.356 57.392 135.632 57.6619C135.91 57.9318 136.129 58.2756 136.288 58.6932C136.447 59.108 136.527 59.6023 136.527 60.1761V60.6491H131.162V59.6094H135.048C135.045 59.3139 134.981 59.0511 134.856 58.821C134.731 58.5881 134.556 58.4048 134.332 58.2713C134.11 58.1378 133.852 58.071 133.556 58.071C133.241 58.071 132.964 58.1477 132.725 58.3011C132.487 58.4517 132.301 58.6506 132.167 58.8977C132.037 59.142 131.97 59.4105 131.967 59.7031V60.6108C131.967 60.9915 132.037 61.3182 132.176 61.5909C132.315 61.8608 132.51 62.0682 132.76 62.2131C133.01 62.3551 133.302 62.4261 133.637 62.4261C133.862 62.4261 134.065 62.3949 134.247 62.3324C134.429 62.267 134.586 62.1719 134.72 62.0469C134.853 61.9219 134.954 61.767 135.022 61.5824L136.463 61.7443C136.372 62.125 136.199 62.4574 135.943 62.7415C135.69 63.0227 135.366 63.2415 134.971 63.3977C134.576 63.5511 134.125 63.6278 133.616 63.6278ZM137.832 65.9545V56.9545H139.349V58.0369H139.438C139.518 57.8778 139.63 57.7088 139.775 57.5298C139.92 57.348 140.116 57.1932 140.363 57.0653C140.61 56.9347 140.925 56.8693 141.309 56.8693C141.815 56.8693 142.271 56.9986 142.677 57.2571C143.086 57.5128 143.41 57.892 143.648 58.3949C143.89 58.8949 144.011 59.5085 144.011 60.2358C144.011 60.9545 143.893 61.5653 143.657 62.0682C143.421 62.571 143.1 62.9545 142.694 63.2188C142.288 63.483 141.827 63.6151 141.313 63.6151C140.938 63.6151 140.627 63.5526 140.38 63.4276C140.133 63.3026 139.934 63.152 139.783 62.9759C139.636 62.7969 139.521 62.6278 139.438 62.4688H139.374V65.9545H137.832ZM139.344 60.2273C139.344 60.6506 139.404 61.0213 139.523 61.3395C139.646 61.6577 139.82 61.9062 140.048 62.0852C140.278 62.2614 140.556 62.3494 140.883 62.3494C141.224 62.3494 141.509 62.2585 141.739 62.0767C141.969 61.892 142.143 61.6406 142.259 61.3224C142.379 61.0014 142.438 60.6364 142.438 60.2273C142.438 59.821 142.38 59.4602 142.263 59.1449C142.147 58.8295 141.974 58.5824 141.744 58.4034C141.513 58.2244 141.227 58.1349 140.883 58.1349C140.553 58.1349 140.273 58.2216 140.043 58.3949C139.813 58.5682 139.638 58.8111 139.519 59.1236C139.403 59.4361 139.344 59.804 139.344 60.2273ZM144.61 58.2202V56.9545H150.338V58.2202H148.22V63.5H146.728V58.2202H144.61ZM153.053 61.4119L155.674 56.9545H157.259V63.5H155.768V59.0384L153.156 63.5H151.566V56.9545H153.053V61.4119ZM161.814 65.7244V54.7727H163.36V65.7244H161.814ZM161.814 63.6278C161.333 63.6278 160.895 63.5469 160.497 63.3849C160.099 63.223 159.755 62.9929 159.466 62.6946C159.179 62.3963 158.956 62.0412 158.797 61.6293C158.64 61.2145 158.562 60.7557 158.562 60.2528C158.562 59.75 158.64 59.2912 158.797 58.8764C158.956 58.4616 159.179 58.1051 159.466 57.8068C159.755 57.5057 160.099 57.2741 160.497 57.1122C160.895 56.9503 161.333 56.8693 161.814 56.8693H162.142V63.6278H161.814ZM161.814 62.3835H162.005V58.1136H161.814C161.541 58.1136 161.299 58.1705 161.089 58.2841C160.882 58.3949 160.707 58.5497 160.565 58.7486C160.426 58.9446 160.319 59.1719 160.245 59.4304C160.174 59.6861 160.139 59.9602 160.139 60.2528C160.139 60.642 160.203 60.9986 160.331 61.3224C160.458 61.6435 160.646 61.9006 160.893 62.0938C161.143 62.2869 161.45 62.3835 161.814 62.3835ZM163.36 63.6278H163.032V56.8693H163.36C163.841 56.8693 164.279 56.9503 164.677 57.1122C165.075 57.2741 165.417 57.5057 165.704 57.8068C165.994 58.1051 166.217 58.4616 166.373 58.8764C166.532 59.2912 166.612 59.75 166.612 60.2528C166.612 60.7557 166.532 61.2145 166.373 61.6293C166.217 62.0412 165.994 62.3963 165.704 62.6946C165.417 62.9929 165.075 63.223 164.677 63.3849C164.279 63.5469 163.841 63.6278 163.36 63.6278ZM163.36 62.3835C163.636 62.3835 163.877 62.3281 164.085 62.2173C164.292 62.1065 164.466 61.9531 164.605 61.7571C164.747 61.5611 164.853 61.3352 164.924 61.0795C164.995 60.821 165.031 60.5455 165.031 60.2528C165.031 59.8636 164.968 59.5071 164.843 59.1832C164.718 58.8594 164.531 58.6009 164.281 58.4077C164.034 58.2116 163.727 58.1136 163.36 58.1136H163.169V62.3835H163.36ZM169.401 61.4119L172.022 56.9545H173.607V63.5H172.115V59.0384L169.503 63.5H167.914V56.9545H169.401V61.4119ZM175.191 63.5V56.9545H176.734V59.5966H177.296L179.265 56.9545H181.123L178.698 60.1676L181.148 63.5H179.282L177.488 61.0327H176.734V63.5H175.191ZM183.907 63.6321C183.492 63.6321 183.118 63.5582 182.786 63.4105C182.456 63.2599 182.195 63.0384 182.002 62.7457C181.811 62.4531 181.716 62.0923 181.716 61.6634C181.716 61.294 181.784 60.9886 181.921 60.7472C182.057 60.5057 182.243 60.3125 182.479 60.1676C182.715 60.0227 182.98 59.9134 183.276 59.8395C183.574 59.7628 183.882 59.7074 184.201 59.6733C184.584 59.6335 184.895 59.598 185.134 59.5668C185.373 59.5327 185.546 59.4815 185.654 59.4134C185.765 59.3423 185.82 59.233 185.82 59.0852V59.0597C185.82 58.7386 185.725 58.4901 185.534 58.3139C185.344 58.1378 185.07 58.0497 184.712 58.0497C184.334 58.0497 184.034 58.1321 183.813 58.2969C183.594 58.4616 183.446 58.6562 183.37 58.8807L181.929 58.6761C182.043 58.2784 182.23 57.946 182.492 57.679C182.753 57.4091 183.073 57.2074 183.451 57.0739C183.828 56.9375 184.246 56.8693 184.703 56.8693C185.019 56.8693 185.333 56.9062 185.645 56.9801C185.958 57.054 186.243 57.1761 186.502 57.3466C186.76 57.5142 186.968 57.7429 187.124 58.0327C187.283 58.3224 187.363 58.6847 187.363 59.1193V63.5H185.88V62.6009H185.828C185.735 62.7827 185.603 62.9531 185.432 63.1122C185.265 63.2685 185.053 63.3949 184.797 63.4915C184.544 63.5852 184.248 63.6321 183.907 63.6321ZM184.307 62.4986C184.617 62.4986 184.885 62.4375 185.113 62.3153C185.34 62.1903 185.515 62.0256 185.637 61.821C185.762 61.6165 185.824 61.3935 185.824 61.152V60.3807C185.776 60.4205 185.694 60.4574 185.577 60.4915C185.463 60.5256 185.336 60.5554 185.194 60.581C185.051 60.6065 184.911 60.6293 184.772 60.6491C184.632 60.669 184.512 60.6861 184.409 60.7003C184.179 60.7315 183.973 60.7827 183.792 60.8537C183.61 60.9247 183.466 61.0241 183.361 61.152C183.256 61.277 183.203 61.4389 183.203 61.6378C183.203 61.9219 183.307 62.1364 183.515 62.2812C183.722 62.4261 183.986 62.4986 184.307 62.4986ZM194.441 56.9545V62.3494H195.442V65.6051H193.934V63.5H188.914V56.9545H190.401V62.2344H192.966V56.9545H194.441ZM198.194 61.4119L200.815 56.9545H202.4V63.5H200.908V59.0384L198.296 63.5H196.707V56.9545H198.194V61.4119ZM207.853 63.5V58.2074H206.456C206.1 58.2074 205.828 58.2898 205.637 58.4545C205.447 58.6193 205.353 58.8239 205.356 59.0682C205.353 59.3125 205.443 59.5142 205.625 59.6733C205.806 59.8324 206.066 59.9119 206.404 59.9119H208.339V61.0369H206.404C205.882 61.0369 205.43 60.9545 205.049 60.7898C204.669 60.625 204.376 60.392 204.172 60.0909C203.967 59.7898 203.865 59.4375 203.865 59.0341C203.865 58.6136 203.968 58.2486 204.176 57.9389C204.386 57.6264 204.684 57.3849 205.071 57.2145C205.46 57.0412 205.922 56.9545 206.456 56.9545H209.298V63.5H207.853ZM203.626 63.5L205.454 60.142H206.975L205.143 63.5H203.626Z" fill="white"/>
</g>
<defs>
<filter id="filter0_d_2143_327" x="0" y="0" width="277" height="131" filterUnits="userSpaceOnUse" color-interpolation-filters="sRGB">
<feFlood flood-opacity="0" result="BackgroundImageFix"/>
<feColorMatrix in="SourceAlpha" type="matrix" values="0 0 0 0 0 0 0 0 0 0 0 0 0 0 0 0 0 0 127 0" result="hardAlpha"/>
<feOffset dy="14"/>
<feGaussianBlur stdDeviation="21"/>
<feColorMatrix type="matrix" values="0 0 0 0 0.0323264 0 0 0 0 0.0598209 0 0 0 0 0.204167 0 0 0 0.06 0"/>
<feBlend mode="normal" in2="BackgroundImageFix" result="effect1_dropShadow_2143_327"/>
<feBlend mode="normal" in="SourceGraphic" in2="effect1_dropShadow_2143_327" result="shape"/>
</filter>
</defs>
</svg>
