<svg width="5" height="17" viewBox="0 0 5 17" fill="none" xmlns="http://www.w3.org/2000/svg">
<path d="M2.27886 10.0923C3.09734 10.0923 3.76084 9.42876 3.76084 8.61028C3.76084 7.7918 3.09734 7.1283 2.27886 7.1283C1.46038 7.1283 0.796875 7.7918 0.796875 8.61028C0.796875 9.42876 1.46038 10.0923 2.27886 10.0923Z" stroke="#1D1D1B" stroke-width="1.19399" stroke-linejoin="bevel"/>
<path d="M2.27886 15.7658C3.09734 15.7658 3.76084 15.1023 3.76084 14.2839C3.76084 13.4654 3.09734 12.8019 2.27886 12.8019C1.46038 12.8019 0.796875 13.4654 0.796875 14.2839C0.796875 15.1023 1.46038 15.7658 2.27886 15.7658Z" stroke="#1D1D1B" stroke-width="1.19399" stroke-linejoin="bevel"/>
<path d="M2.27886 4.41856C3.09734 4.41856 3.76084 3.75505 3.76084 2.93658C3.76084 2.1181 3.09734 1.45459 2.27886 1.45459C1.46038 1.45459 0.796875 2.1181 0.796875 2.93658C0.796875 3.75505 1.46038 4.41856 2.27886 4.41856Z" stroke="#1D1D1B" stroke-width="1.19399" stroke-linejoin="bevel"/>
</svg>
