<svg width="32" height="32" viewBox="0 0 32 32" fill="none" xmlns="http://www.w3.org/2000/svg">
<path d="M10.252 14.2873C10.252 10.1564 13.651 6.75732 17.782 6.75732C21.9129 6.75732 25.312 10.1564 25.312 14.2873C25.312 18.4183 21.9129 21.8174 17.782 21.8174C15.7853 21.8174 13.8688 21.0232 12.4571 19.6115" stroke="#5F5F5F" stroke-width="0.238799" stroke-linejoin="bevel"/>
<path d="M17.78 25.0093C23.7012 25.0093 28.5014 20.2092 28.5014 14.2879C28.5014 8.36667 23.7012 3.56653 17.78 3.56653C11.8587 3.56653 7.05859 8.36667 7.05859 14.2879C7.05859 20.2092 11.8587 25.0093 17.78 25.0093Z" stroke="#5F5F5F" stroke-width="1.19399" stroke-linejoin="bevel"/>
<path d="M11.3166 22.8434L5.72727 28.4336L3.49805 26.2036L9.10765 20.594C9.7299 21.448 10.475 22.2064 11.3166 22.8434Z" stroke="#5F5F5F" stroke-width="1.19399" stroke-linejoin="bevel"/>
</svg>
