<svg width="221" height="173" viewBox="0 0 221 173" fill="none" xmlns="http://www.w3.org/2000/svg">
<path d="M111 45C111 45 113.207 63.5398 121.804 71.2767C130.4 79.0137 151 81 151 81C151 81 130.4 82.9863 121.804 90.7233C113.207 98.4602 111 117 111 117C111 117 108.793 98.4602 100.196 90.7233C91.5997 82.9863 71 81 71 81C71 81 91.5997 79.0137 100.196 71.2767C108.793 63.5398 111 45 111 45Z" fill="white" fill-opacity="0.25"/>
<path d="M181 93C181 93 183.207 111.54 191.804 119.277C200.4 127.014 221 129 221 129C221 129 200.4 130.986 191.804 138.723C183.207 146.46 181 165 181 165C181 165 178.793 146.46 170.196 138.723C161.6 130.986 141 129 141 129C141 129 161.6 127.014 170.196 119.277C178.793 111.54 181 93 181 93Z" fill="white" fill-opacity="0.1"/>
<path d="M40 122C40 122 42.207 150.325 50.8036 162.145C59.4003 173.965 80 177 80 177C80 177 59.4003 180.035 50.8036 191.855C42.207 203.675 40 232 40 232C40 232 37.793 203.675 29.1964 191.855C20.5997 180.035 0 177 0 177C0 177 20.5997 173.965 29.1964 162.145C37.793 150.325 40 122 40 122Z" fill="white" fill-opacity="0.1"/>
<path d="M171.5 -59C171.5 -59 173.183 -30.6753 179.738 -18.855C186.293 -7.03464 202 -4 202 -4C202 -4 186.293 -0.965359 179.738 10.855C173.183 22.6753 171.5 51 171.5 51C171.5 51 169.817 22.6753 163.262 10.855C156.707 -0.965359 141 -4 141 -4C141 -4 156.707 -7.03464 163.262 -18.855C169.817 -30.6753 171.5 -59 171.5 -59Z" fill="white" fill-opacity="0.1"/>
<path d="M40.5 20C40.5 20 42.1828 33.3898 48.7378 38.9776C55.2927 44.5654 71 46 71 46C71 46 55.2927 47.4346 48.7378 53.0224C42.1828 58.6102 40.5 72 40.5 72C40.5 72 38.8172 58.6102 32.2622 53.0224C25.7073 47.4346 10 46 10 46C10 46 25.7073 44.5654 32.2622 38.9776C38.8172 33.3898 40.5 20 40.5 20Z" fill="white" fill-opacity="0.1"/>
</svg>
