<svg width="96" height="15" viewBox="0 0 96 15" fill="none" xmlns="http://www.w3.org/2000/svg">
<path d="M3.39773 12H0.375L4.30114 0.363636H8.04545L11.9716 12H8.94886L6.21591 3.29545H6.125L3.39773 12ZM2.99432 7.42045H9.3125V9.55682H2.99432V7.42045ZM20.3324 12L16.6733 7.17045H16.0369V12H13.2244V0.363636H16.0369V4.88068H16.4858L20.0881 0.363636H23.6051L19.1222 5.85795L23.8381 12H20.3324ZM27.3821 12H24.3594L28.2855 0.363636H32.0298L35.956 12H32.9332L30.2003 3.29545H30.1094L27.3821 12ZM26.9787 7.42045H33.2969V9.55682H26.9787V7.42045ZM36.7031 14.8011V9.80682H37.5043C37.7732 9.625 38.0194 9.37121 38.2429 9.04545C38.4664 8.71591 38.6577 8.25379 38.8168 7.65909C38.9759 7.06061 39.0895 6.27083 39.1577 5.28977L39.5213 0.363636H47.4815V9.80682H48.7315V14.7955H46.027V12H39.4077V14.8011H36.7031ZM40.7315 9.80682H44.777V2.64773H42.044L41.8622 5.28977C41.813 6.02841 41.7334 6.67992 41.6236 7.24432C41.5137 7.80871 41.383 8.30114 41.2315 8.72159C41.08 9.13826 40.9134 9.5 40.7315 9.80682ZM50.0213 12V0.363636H58.1349V2.64773H52.8338V5.03409H57.7202V7.32386H52.8338V9.71591H58.1349V12H50.0213ZM59.8963 0.363636H63.3793L66.3338 7.56818H66.4702L69.4247 0.363636H72.9077V12H70.169V4.85227H70.0724L67.277 11.9261H65.527L62.7315 4.8125H62.6349V12H59.8963V0.363636ZM74.6619 0.363636H77.4688V7.06818H77.5653L82.1449 0.363636H84.5653V12H81.7528V5.28409H81.679L77.0426 12H74.6619V0.363636ZM95.6065 12H92.7997V2.63068H91.4134C90.9929 2.63068 90.6387 2.69129 90.3509 2.8125C90.063 2.92992 89.8433 3.10795 89.6918 3.34659C89.544 3.58144 89.4702 3.87879 89.4702 4.23864C89.4702 4.59848 89.544 4.89394 89.6918 5.125C89.8395 5.35227 90.0573 5.52273 90.3452 5.63636C90.6368 5.74621 90.991 5.80114 91.4077 5.80114H93.9247V8.01705H90.8906C90.0043 8.01705 89.2353 7.87121 88.5838 7.57955C87.9361 7.28409 87.4361 6.85606 87.0838 6.29545C86.7315 5.73106 86.5554 5.04545 86.5554 4.23864C86.5554 3.44318 86.7277 2.75568 87.0724 2.17614C87.4171 1.5928 87.9077 1.14583 88.544 0.835227C89.1804 0.520833 89.9342 0.363636 90.8054 0.363636H95.6065V12ZM89.0554 6.68182H92.0668L89.2315 12H86.1577L89.0554 6.68182Z" fill="#A020C2"/>
</svg>
